<?xml version="1.0" encoding="UTF-8"?>
<svg id="_レイヤー_2" data-name="レイヤー 2" xmlns="http://www.w3.org/2000/svg" viewBox="0 0 243.9 26.9">
  <defs>
    <style>
      .cls-1 {
        fill: #231815;
        stroke: #231815;
        stroke-miterlimit: 10;
        stroke-width: .25px;
      }
    </style>
  </defs>
  <g id="_レイヤー_1-2" data-name="レイヤー 1">
    <g>
      <path class="cls-1" d="M.12.56h24.21v6.36h-8.12v19.41h-7.96V6.93H.12V.56Z"/>
      <path class="cls-1" d="M26.67.56h7.96v9.02h8.7V.56h8v25.77h-8v-10.42h-8.7v10.42h-7.96V.56Z"/>
      <path class="cls-1" d="M55.31.56h21.34v5.5h-13.36v4.1h12.39v5.26h-12.39v5.08h13.75v5.84h-21.73V.56Z"/>
      <path class="cls-1" d="M90.71.56h13.24c2.88,0,5.04.69,6.48,2.06s2.15,3.32,2.15,5.85-.78,4.63-2.35,6.1-3.95,2.2-7.16,2.2h-4.36v9.56h-8V.56ZM98.7,11.55h1.95c1.54,0,2.61-.27,3.23-.8s.93-1.22.93-2.05-.27-1.49-.81-2.06-1.55-.84-3.04-.84h-2.27v5.75Z"/>
      <path class="cls-1" d="M114.44,13.47c0-4.21,1.17-7.48,3.52-9.83S123.56.12,127.75.12s7.59,1.15,9.91,3.45,3.48,5.53,3.48,9.68c0,3.01-.51,5.48-1.52,7.41s-2.48,3.43-4.39,4.5-4.3,1.61-7.16,1.61-5.31-.46-7.22-1.39-3.45-2.39-4.63-4.39-1.78-4.51-1.78-7.52ZM122.4,13.5c0,2.6.48,4.47,1.45,5.61s2.28,1.71,3.95,1.71,3.04-.56,3.97-1.67,1.41-3.11,1.41-5.99c0-2.43-.49-4.2-1.47-5.32s-2.31-1.68-3.98-1.68-2.89.57-3.87,1.71-1.46,3.02-1.46,5.64Z"/>
      <path class="cls-1" d="M142.75,17.81l7.58-.47c.16,1.23.5,2.17,1,2.81.82,1.04,1.99,1.56,3.52,1.56,1.14,0,2.01-.27,2.63-.8s.92-1.15.92-1.85-.29-1.27-.88-1.79-1.95-1.03-4.08-1.49c-3.49-.79-5.98-1.83-7.47-3.13-1.5-1.3-2.25-2.96-2.25-4.97,0-1.32.38-2.58,1.15-3.75s1.92-2.1,3.46-2.78,3.65-1.01,6.34-1.01c3.29,0,5.8.61,7.53,1.84s2.76,3.17,3.08,5.84l-7.51.44c-.2-1.16-.62-2-1.26-2.53s-1.52-.79-2.65-.79c-.93,0-1.62.2-2.09.59s-.7.87-.7,1.43c0,.41.19.78.58,1.11.38.34,1.27.66,2.67.95,3.48.75,5.97,1.51,7.48,2.28s2.6,1.72,3.29,2.86,1.03,2.41,1.03,3.81c0,1.65-.46,3.18-1.37,4.57s-2.19,2.45-3.83,3.17-3.71,1.08-6.21,1.08c-4.38,0-7.42-.84-9.11-2.53s-2.64-3.83-2.87-6.43Z"/>
      <path class="cls-1" d="M167.03.56h24.21v6.36h-8.12v19.41h-7.96V6.93h-8.12V.56Z"/>
      <path class="cls-1" d="M193.52.56h21.34v5.5h-13.36v4.1h12.39v5.26h-12.39v5.08h13.75v5.84h-21.73V.56Z"/>
      <path class="cls-1" d="M218.35,26.33V.56h13.27c2.46,0,4.34.21,5.64.63s2.35,1.2,3.15,2.35,1.2,2.53,1.2,4.17c0,1.43-.3,2.66-.92,3.7-.61,1.04-1.45,1.88-2.51,2.52-.68.41-1.61.75-2.8,1.02.95.32,1.64.63,2.07.95.29.21.72.66,1.27,1.35.56.69.93,1.23,1.12,1.6l3.86,7.47h-9l-4.26-7.88c-.54-1.02-1.02-1.68-1.44-1.99-.57-.4-1.22-.6-1.95-.6h-.7v10.46h-8ZM226.35,11.01h3.36c.36,0,1.07-.12,2.11-.35.53-.11.96-.38,1.29-.81s.5-.93.5-1.49c0-.83-.26-1.47-.79-1.92s-1.52-.67-2.97-.67h-3.5v5.24Z"/>
    </g>
  </g>
</svg>